# xmcd CD database file
#
# Track frame offsets:
#	150
#	37729
#	85134
#	127323
#	152532
#	187192
#	221432
#	265525
#
# Disc length: 4225 seconds
#
# Revision: 1
# Processed by: cddbd v1.5.1PL0 Copyright (c) Steve Scherf et al.
# Submitted via: CDex 1.51
#
DISCID=65107f08
DTITLE=Louis SMITH - Once In A While
DYEAR=1999
DGENRE=Jazz
TTITLE0=Just Friends
TTITLE1=Once In A While
TTITLE2=Over The Rainbow
TTITLE3=Tune Up
TTITLE4=Don't Blame Me
TTITLE5=Once I Had A Secret Love
TTITLE6=Sandu
TTITLE7=There Is No Greater Love
EXTD=YEAR: 1999
EXTT0=
EXTT1=
EXTT2=
EXTT3=
EXTT4=
EXTT5=
EXTT6=
EXTT7=
PLAYORDER=
